<?xml version="1.0" encoding="UTF-8" standalone="no"?>
<!-- Created with Inkscape (http://www.inkscape.org/) -->

<svg
   xmlns:dc="http://purl.org/dc/elements/1.1/"
   xmlns:cc="http://creativecommons.org/ns#"
   xmlns:rdf="http://www.w3.org/1999/02/22-rdf-syntax-ns#"
   xmlns:svg="http://www.w3.org/2000/svg"
   xmlns="http://www.w3.org/2000/svg"
   xmlns:xlink="http://www.w3.org/1999/xlink"
   xmlns:sodipodi="http://sodipodi.sourceforge.net/DTD/sodipodi-0.dtd"
   xmlns:inkscape="http://www.inkscape.org/namespaces/inkscape"
   width="500"
   height="500"
   viewBox="0 0 500 500.00002"
   version="1.1"
   id="svg960"
   inkscape:version="0.92.4 (5da689c313, 2019-01-14)"
   sodipodi:docname="ParallaxCharacters.svg">
  <defs
     id="defs954">
    <linearGradient
       inkscape:collect="always"
       xlink:href="#linearGradient853"
       id="linearGradient855"
       x1="1717.4148"
       y1="92.910622"
       x2="1717.4148"
       y2="1538.2468"
       gradientUnits="userSpaceOnUse"
       gradientTransform="matrix(0.47628342,0,0,0.47628342,-786.6976,482.4549)" />
    <linearGradient
       inkscape:collect="always"
       id="linearGradient853">
      <stop
         style="stop-color:#ff4655;stop-opacity:0.27555555"
         offset="0"
         id="stop849" />
      <stop
         style="stop-color:#ff4655;stop-opacity:0"
         offset="1"
         id="stop851" />
    </linearGradient>
  </defs>
  <sodipodi:namedview
     id="base"
     pagecolor="#ffffff"
     bordercolor="#666666"
     borderopacity="1.0"
     inkscape:pageopacity="0.0"
     inkscape:pageshadow="2"
     inkscape:zoom="0.7"
     inkscape:cx="414.74221"
     inkscape:cy="317.08941"
     inkscape:document-units="px"
     inkscape:current-layer="layer1"
     showgrid="false"
     units="px"
     inkscape:window-width="2560"
     inkscape:window-height="1377"
     inkscape:window-x="-8"
     inkscape:window-y="-8"
     inkscape:window-maximized="1" />
  <metadata
     id="metadata957">
    <rdf:RDF>
      <cc:Work
         rdf:about="">
        <dc:format>image/svg+xml</dc:format>
        <dc:type
           rdf:resource="http://purl.org/dc/dcmitype/StillImage" />
        <dc:title></dc:title>
      </cc:Work>
    </rdf:RDF>
  </metadata>
  <g
     inkscape:label="Layer 1"
     inkscape:groupmode="layer"
     id="layer1"
     transform="translate(0,-622.51965)">
    <path
       style="fill:url(#linearGradient855);fill-opacity:1;stroke:#ff4655;stroke-width:2.5;stroke-linecap:butt;stroke-linejoin:round;stroke-miterlimit:4;stroke-dasharray:none;stroke-opacity:1;paint-order:normal"
       d="m 190.13201,623.4722 -1.33864,1.14699 0.12745,3.69678 -5.54518,-3.69678 -2.29488,1.72094 2.48654,2.67724 -8.79639,-3.95166 -6.11909,0.12744 -7.07543,-1.08373 -1.72096,2.54979 2.42233,1.21117 -0.19065,2.23073 -3.12375,-1.97584 -1.72096,2.80467 4.46144,4.20656 -0.57307,1.84838 h -6.94797 l -2.04001,3.37771 2.99635,1.46606 0.19064,1.78513 h 3.44288 l -5.09962,3.82423 3.12284,3.63351 2.04003,-0.44651 -1.52935,2.9963 -0.38322,2.74049 3.37861,2.80469 0.57397,-2.67725 1.08278,0.82886 -1.84836,3.76003 3.69767,1.53025 -0.2558,-3.88841 1.21118,-2.42235 -0.25491,9.8159 5.03543,3.82515 v 1.33769 l -1.75445,4.52562 1.88189,0.63814 3.2512,1.01955 v 2.23072 l -1.53024,2.74048 2.93209,1.97677 -0.50977,1.78421 0.82883,2.23071 2.54978,-0.63721 -0.27439,3.23352 c -27.38228,5.71332 -48.98416,18.65273 -71.11415,30.93144 l 10.9629,4.46144 10.32569,13.13035 -10.45314,5.99167 0.95627,3.4419 5.41773,5.32284 20.90627,73.07697 -16.82713,15.93501 -12.49315,12.49315 -3.05956,0.50977 -7.521,3.05955 -3.4419,0.25486 -0.637233,2.16747 -2.67722,-1.27535 -2.93211,-3.31445 -7.13868,-4.07913 -2.29493,3.56937 4.58986,7.39353 3.69678,0.63817 0.25484,1.27444 -12.4931,4.97212 h -4.84379 l -2.16743,-4.20749 -3.69682,-0.25486 -0.12741,3.82422 -4.71724,-2.03912 -0.38236,-4.33493 -3.56932,-1.14699 -0.12746,2.29493 -3.95167,-3.05956 -2.04003,1.52931 2.67725,3.56936 -4.84466,-2.42143 -2.16657,0.76464 -0.1274,2.0391 1.9116,0.38327 7.13964,7.26609 0.50976,6.374 7.26609,4.33404 8.28566,2.29486 9.43361,5.48194 7.13958,-4.33495 19.121123,-0.38231 5.22701,-3.69677 4.8447,0.38231 16.8271,-10.19822 -2.42234,14.53222 2.80471,0.63817 -5.60938,7.52098 -6.11911,-2.04001 c -4.30832,1.07531 -3.63966,4.63962 -3.82422,7.77681 -3.38242,1.79324 -4.28008,4.82815 -3.82422,8.54058 -3.81736,2.52383 -4.67501,5.92788 -4.33399,9.68847 l 4.07908,2.04002 -2.04002,5.22702 -5.73678,-2.54978 -0.38232,6.24655 c -8.93134,24.4913 -15.594233,47.33609 16.8271,41.81339 l 2.04001,28.04495 -4.07907,8.1591 14.71968,18.749 -3.56021,58.1052 1.66797,13.3948 -4.31526,7.678 2.83603,12.5662 h 23.78321 l 1.32426,-10.8163 5.40363,-9.6071 -1.9902,-9.352 12.9459,-47.3518 -6.17606,-30.2695 4.27726,-14.71702 6.18254,-52.90285 15.10604,65.65327 9.75201,2.1683 8.47712,-5.4804 1.42524,-5.0652 22.07693,23.7452 1.68023,11.5072 1.93518,5.388 13.66329,11.2523 12.64341,27.5694 -1.63421,5.1331 -1.88924,33.1454 h 45.02322 l -4.94868,-57.2647 6.01451,-6.5949 -6.4785,-96.08574 29.21579,60.71424 7.28933,2.5836 1.68022,12.7819 -3.41899,4.1133 3.15147,9.2704 -1.1829,24.8229 13.09485,11.82 -3.9874,10.5453 14.27693,5.8519 7.93084,17.4418 h 23.90751 l -7.90668,-34.2887 5.80313,-8.1597 -4.3117,-4.7154 -3.32202,-17.5371 3.16324,-11.9509 -8.45776,-3.5014 0.12746,-4.0791 6.75632,-10.5806 -3.187,-3.3145 -4.84377,-33.78266 -12.11078,-50.22652 3.82421,-0.51072 1.40281,-1.91161 -0.25582,-3.0596 4.3349,-11.09031 -17.46527,-11.72847 -1.91165,-7.26615 h -0.89209 l 1.01954,-11.60103 -1.4028,-2.67723 -4.46144,-1.4019 -0.50977,-2.93209 -3.31445,-1.4019 -7.13868,-15.23454 -6.05585,-5.35352 -3.69676,-14.46897 3.25211,0.87627 9.94241,2.88375 31.16864,1.33859 -0.0642,3.63352 2.04,1.6568 14.46902,0.70138 3.31441,-6.56471 0.19069,-2.93209 4.33495,-0.19167 7.26608,-0.4465 11.60108,-5.6726 0.44555,0.57393 3.95259,-1.14698 -0.1274,-0.89304 4.20652,-1.08373 5.48098,-6.88376 0.12836,-2.16653 4.20658,-4.46239 -0.76467,-2.6772 h -1.14794 l -6.75633,4.3349 v 2.23072 l -4.39819,4.20654 -1.7842,0.0643 2.10327,-2.61304 c 0,0 0.12746,-3.88832 0.12746,-4.14332 0,-0.25496 1.91261,-2.9963 1.91261,-2.9963 l -1.5935,-0.95534 -4.20748,4.14233 -0.38237,2.99635 -2.35813,2.9321 -3.37866,1.27444 -5.92749,-2.04003 0.57397,-4.26982 3.44186,-3.88839 0.0633,-1.97585 2.35913,-4.14329 -2.99629,-1.27444 -6.05495,4.5889 -0.19166,2.23072 -1.33858,2.74144 -0.95629,-0.12841 -7.8401,7.3945 -1.84836,4.65304 -4.2261,-0.58415 1.80282,-1.62238 -7.7517,-1.62231 -0.5414,1.44186 -2.3433,-0.7209 -2.88467,3.24468 c -13.82703,-0.65394 -23.4852,-6.86582 -33.35194,-12.80013 l -9.91635,-1.26143 c -0.10741,-13.79936 -2.02245,-27.18776 -9.56196,-39.29802 0,0 2.82345,-7.81103 3.95166,-13.76756 0.80793,-4.26551 0.50978,-8.28659 0.50978,-8.28659 l -2.03907,-2.42235 1.40184,-4.46144 2.80469,-0.12744 -0.12745,-3.56934 1.01953,-0.12744 0.12746,-2.04001 4.07913,1.27442 17.21035,12.23826 -19.50433,-25.24117 -6.37401,-4.58887 -9.6252,-5.86425 1.27535,-0.38232 v -2.93212 l 1.01952,0.0643 1.78421,-2.04001 -1.21023,-1.21117 v -1.97583 l 4.7805,-1.52932 0.57301,-1.72095 3.76098,6.69216 -0.76463,4.90795 -2.61399,3.25119 11.53683,-4.90795 -1.3377,-1.33861 2.61308,-14.27828 5.60935,10.07079 0.2549,7.77681 1.97581,-10.13497 -2.67724,-10.07079 -14.40476,-23.32859 -1.33864,-6.11912 5.99078,-5.60936 -11.60012,1.33863 -9.68846,-6.18239 -0.2549,5.29028 c -10.95699,-9.14737 -23.91305,-7.37813 -37.98918,0.50978 l -1.65674,-1.08373 1.59348,-5.9275 -7.07541,-10.708 1.08373,4.84377 c -12.36074,-9.62262 -28.42345,-12.63532 -42.89713,-18.48482 6.45554,4.19122 13.1389,8.18375 18.29319,13.5136 l -3.44186,-0.31907 5.99164,4.90796 c -5.33433,3.83537 -9.37106,8.39232 -13.19452,13.06709 l -20.39647,-1.65769 -2.86793,-8.47729 -2.80469,-12.11081 -0.25487,-6.75633 -3.2512,-3.76097 -0.38231,-3.37771 -0.2549,-8.41403 -4.20655,-0.25488 -0.12744,2.48654 -5.41774,-6.94797 -2.35907,0.19069 z m 238.83097,91.65573 -6.12932,9.73497 -3.42611,29.74724 c 3.74221,-0.0849 7.04066,0.60062 7.59358,6.05494 -2.93396,2.07766 -4.04003,4.69339 -3.98798,7.64657 0.0502,2.84972 2.10179,5.72662 4.14705,6.85031 -10.98252,2.77817 -20.74236,11.66874 -30.82819,18.9304 3.76263,0.97955 1.14088,6.41106 0.54049,9.28472 8.98965,-8.37007 18.32681,-18.76751 31.00861,-21.54436 l 1.18885,8.85123 c -16.34252,6.03399 -31.058,13.95153 -38.4766,22.03186 13.40562,-9.52191 35.07117,-7.61263 55.32607,-8.92384 49.09846,-3.17836 40.27635,6.22785 28.04584,22.69139 12.16199,-5.22345 17.23353,-14.35491 17.59181,-26.00583 2.2166,-1.2633 3.91528,-0.67623 2.80471,9.94336 2.85906,-3.11566 4.10737,-6.94064 4.33395,-12.23826 0.24854,-5.81372 -7.28481,-7.10089 -6.37394,-16.82713 -12.46732,-3.66878 -35.78481,0.0407 -57.46109,7.29123 l -0.12837,-10.60009 9.735,-2.34329 c 7.40435,-1.78252 7.78033,2.31578 5.58886,5.76844 7.46879,-2.33475 12.4661,-9.64861 6.12938,-10.63638 -5.44272,-0.84842 -11.26152,0.65365 -20.01132,2.52374 1.47966,-1.29764 1.85825,-2.91821 1.98323,-5.22796 0.0105,-2.63692 -1.60131,-6.05413 -3.88003,-7.29681 0.77167,-4.46609 3.76135,-4.18862 6.38424,-3.60375 l -5.38887,-30.204 z m -345.964063,9.5545 c -1.75454,16.52204 -2.64005,33.33356 -5.76842,49.39766 0.55649,9.54827 -1.54206,15.87386 -8.11358,16.76667 l -5.04746,5.76935 c 14.17076,-6.65295 18.31686,1.23761 20.55273,11.89869 1.11897,-1.94733 0.91422,-3.56445 4.50701,-6.13029 3.32627,2.37017 3.96292,6.20141 3.88005,9.20571 5.11352,-4.78175 10.833353,3.09173 14.148043,7.92191 0.38198,-11.97475 -8.186073,-19.55669 -16.947163,-27.04304 0.0295,-1.91931 0.0837,-3.83576 1.44281,-5.58888 -5.13368,-0.35775 -7.2168,-7.55253 -6.85121,-13.34059 l 1.0819,-17.12668 1.26229,-1.26234 c -3.16199,-9.99414 -2.77236,-20.31153 -4.147,-30.46817 z m -44.61995,75.44906 c -0.2148,4.79979 -2.05479,5.75747 0.0902,16.13502 -1.9367,4.04179 -1.49386,8.87682 -1.35259,13.61131 2.01887,-3.90486 4.08802,-7.53356 6.58052,-8.83357 -5.38157,-3.01845 -4.70744,-12.66914 -5.31818,-20.91276 z m 34.885,13.43082 c -7.89044,-0.0563 -15.41768,7.45884 -15.50436,14.96292 -0.11293,9.77395 7.58405,15.7817 16.40573,15.68481 8.93492,-0.0981 15.31712,-5.70614 15.50436,-14.96295 0.17955,-8.87668 -6.82563,-15.61648 -16.40573,-15.68478 z m 25.65605,4.25211 c 3.165723,4.75765 2.681233,8.59668 1.401843,10.96386 1.19667,3.67557 1.76264,7.49012 -1.656743,9.6875 l 1.27442,1.91257 c 7.655363,0.0993 1.224823,5.78823 -1.01952,9.81591 3.696153,-2.36608 12.842793,-10.1012 9.815873,-20.7788 l -2.04002,1.65679 c -0.12035,-4.26483 -2.22558,-8.65364 -7.775853,-13.25783 z m -56.84519,11.07174 c -1.67114,2.74863 -3.85775,4.85318 -6.49031,6.40005 -0.20032,11.43034 12.19448,26.29557 30.10725,25.87096 -5.10314,0 -11.3422,-2.05964 -11.8987,-6.03914 -4.67144,-0.15026 -7.82738,-2.44743 -6.76009,-10.72752 -3.3365,2.12885 -7.88262,-0.92494 -7.93306,-7.121 l 1.71257,0.90141 z m 414.387043,9.28938 c -3.35212,-0.38066 -25.5156,14.50807 -25.5156,14.50807 0,0 27.11549,-13.04393 25.78071,-14.42249 -0.0677,-0.0452 -0.15698,-0.0734 -0.26511,-0.0855 z"
       id="path1740"
       inkscape:connector-curvature="0"
       sodipodi:nodetypes="ccccccccccccccccccccccccccccccccccccccccccccccccccccccccccccccccccccccccccccccccccccccccccccccccccccccccccccccccccccccccccccccccccccccccccccccccccccccccccccccccccccccccccccccccccccccccccccccccccccscccccccccccccccccccccccccccscccccccccccccccccccccccccccccccccccccccccccccccccccccccccccccccccccccscccccccccsccccccccccccccccccccsccccscscscccccccccccccccccccccc" />
    <path
       style="fill:none;stroke:#ff4655;stroke-width:2.5;stroke-linecap:butt;stroke-linejoin:round;stroke-miterlimit:4;stroke-dasharray:none;stroke-opacity:1;paint-order:normal"
       d="m 236.13366,676.33232 8.38589,1.42097 1.80569,22.57122 32.14144,10.29248 3.79195,4.87538 -3.25023,65.72739 -3.61143,33.94712 -8.66734,10.47305 -20.58495,43.51731 -2.70854,5.9588 2.70854,18.05698 2.52797,-1.62514 2.16687,4.51428 16.25127,7.40333 -10.47308,26.90487 1.26402,1.62513 -1.26402,3.43083 h -1.26396 l -1.62513,4.51428 20.76551,14.98722 -6.86166,15.89015 -3.79194,-0.90284 5.77825,21.12671 2.88909,9.57016 6.68109,6.1394 4.69479,13.5428 11.01476,16.0706 2.18609,27.0188 3.57512,5.8734 2.04293,14.3003 5.74566,10.3423 -3.70278,18.0032 6.65986,9.3095"
       id="path1757"
       inkscape:connector-curvature="0" />
  </g>
</svg>
